<svg xmlns="http://www.w3.org/2000/svg" viewBox="0 0 1280 800" role="img" aria-labelledby="title desc">
  <title id="title">Hexagon generated project cover</title>
  <desc id="desc">A generated editorial cover for Hexagon with tabletop seats and hex board cells.</desc>
  <defs>
    <pattern id="grid" width="64" height="64" patternUnits="userSpaceOnUse">
      <path d="M64 0H0v64" fill="none" stroke="#dfff3f" stroke-opacity=".1" stroke-width="1"/>
    </pattern>
    <linearGradient id="bg" x1="0" x2="1" y1="0" y2="1">
      <stop offset="0" stop-color="#07100d"/>
      <stop offset=".56" stop-color="#111713"/>
      <stop offset="1" stop-color="#11251d"/>
    </linearGradient>
    <filter id="shadow" x="-20%" y="-20%" width="140%" height="140%">
      <feDropShadow dx="0" dy="30" stdDeviation="30" flood-color="#000" flood-opacity=".38"/>
    </filter>
  </defs>
  <rect width="1280" height="800" fill="url(#bg)"/>
  <rect width="1280" height="800" fill="url(#grid)"/>
  <g opacity=".8">
    <path d="M110 160h846v500H110z" fill="none" stroke="#fbfff7" stroke-opacity=".18" stroke-width="2"/>
    <path d="M110 400h846M533 160v500" stroke="#fbfff7" stroke-opacity=".1" stroke-width="2"/>
  </g>
  <g filter="url(#shadow)">
    <rect x="760" y="94" width="372" height="612" rx="8" fill="#fbfff7"/>
    <rect x="786" y="120" width="320" height="560" rx="6" fill="#07100d"/>
    <text x="830" y="210" fill="#dfff3f" font-family="Avenir Next Condensed, DIN Condensed, Arial Narrow, sans-serif" font-size="34" font-weight="800">FIRST SEAT</text>
    <text x="830" y="286" fill="#fbfff7" font-family="Songti SC, STSong, serif" font-size="72" font-weight="800">进入</text>
    <rect x="830" y="342" width="216" height="52" rx="5" fill="none" stroke="#fbfff7" stroke-opacity=".28"/>
    <rect x="830" y="430" width="216" height="52" rx="5" fill="#dfff3f"/>
    <text x="900" y="464" fill="#07100d" font-family="PingFang SC, sans-serif" font-size="18" font-weight="800">进入大厅</text>
  </g>
  <g transform="translate(116 128)">
    <text x="0" y="68" fill="#fbfff7" font-family="Avenir Next Condensed, DIN Condensed, Arial Narrow, sans-serif" font-size="94" font-weight="800">HEXAGON</text>
    <text x="4" y="110" fill="#ff3f2d" font-family="PingFang SC, Noto Sans CJK SC, sans-serif" font-size="20" font-weight="800">WEB TABLETOP LOBBY</text>
    <g transform="translate(16 172)">
      <path d="M95 0l95 55v110l-95 55L0 165V55z" fill="#dfff3f"/>
      <path d="M237 82l95 55v110l-95 55-95-55V137z" fill="#b6f4c4"/>
      <path d="M95 164l95 55v110l-95 55L0 329V219z" fill="#fbfff7"/>
      <path d="M379 0l95 55v110l-95 55-95-55V55z" fill="#ff3f2d"/>
      <path d="M521 82l95 55v110l-95 55-95-55V137z" fill="#fbfff7"/>
      <path d="M379 164l95 55v110l-95 55-95-55V219z" fill="#dfff3f"/>
    </g>
  </g>
  <path d="M0 724h1280v18H0z" fill="#dfff3f"/>
  <path d="M72 724h54v18H72zm326 0h54v18h-54zm652 0h54v18h-54z" fill="#ff3f2d"/>
  <text x="112" y="704" fill="#fbfff7" font-family="SF Mono, Menlo, monospace" font-size="22">hex.f0.nz</text>
</svg>
