<svg xmlns="http://www.w3.org/2000/svg" viewBox="0 0 1280 800" role="img" aria-labelledby="title desc">
  <title id="title">HuggingAI generated project cover</title>
  <desc id="desc">A generated editorial cover for HuggingAI with model gateway routes and API nodes.</desc>
  <defs>
    <pattern id="grid" width="52" height="52" patternUnits="userSpaceOnUse">
      <path d="M52 0H0v52" fill="none" stroke="#dfff3f" stroke-opacity=".1" stroke-width="1"/>
    </pattern>
    <radialGradient id="glow" cx=".68" cy=".3" r=".76">
      <stop offset="0" stop-color="#dfff3f" stop-opacity=".22"/>
      <stop offset=".42" stop-color="#b6f4c4" stop-opacity=".08"/>
      <stop offset="1" stop-color="#07100d" stop-opacity="0"/>
    </radialGradient>
    <linearGradient id="bg" x1="0" x2="1" y1="0" y2="1">
      <stop offset="0" stop-color="#07100d"/>
      <stop offset=".64" stop-color="#123b2e"/>
      <stop offset="1" stop-color="#07100d"/>
    </linearGradient>
    <filter id="shadow" x="-20%" y="-20%" width="140%" height="140%">
      <feDropShadow dx="0" dy="26" stdDeviation="26" flood-color="#000" flood-opacity=".32"/>
    </filter>
  </defs>
  <rect width="1280" height="800" fill="url(#bg)"/>
  <rect width="1280" height="800" fill="url(#grid)"/>
  <rect width="1280" height="800" fill="url(#glow)"/>
  <g transform="translate(96 126)">
    <text x="0" y="72" fill="#fbfff7" font-family="Avenir Next Condensed, DIN Condensed, Arial Narrow, sans-serif" font-size="86" font-weight="800">HUGGINGAI</text>
    <text x="4" y="114" fill="#ff3f2d" font-family="PingFang SC, Noto Sans CJK SC, sans-serif" font-size="20" font-weight="800">UNIFIED LLM API GATEWAY</text>
  </g>
  <g filter="url(#shadow)">
    <rect x="114" y="316" width="1052" height="286" rx="8" fill="#fbfff7"/>
    <rect x="152" y="354" width="268" height="210" rx="6" fill="#07100d"/>
    <rect x="486" y="354" width="268" height="210" rx="6" fill="#07100d"/>
    <rect x="820" y="354" width="268" height="210" rx="6" fill="#07100d"/>
    <path d="M420 460h66m268 0h66" stroke="#ff3f2d" stroke-width="10" stroke-linecap="square"/>
    <path d="M420 420c56 0 56-42 112-42h176c56 0 56 42 112 42M420 500c56 0 56 42 112 42h176c56 0 56-42 112-42" fill="none" stroke="#b6f4c4" stroke-width="6"/>
    <circle cx="286" cy="460" r="62" fill="#dfff3f"/>
    <circle cx="620" cy="460" r="62" fill="#b6f4c4"/>
    <circle cx="954" cy="460" r="62" fill="#ff3f2d"/>
    <text x="242" y="472" fill="#07100d" font-family="SF Mono, Menlo, monospace" font-size="30" font-weight="800">API</text>
    <text x="578" y="472" fill="#07100d" font-family="SF Mono, Menlo, monospace" font-size="30" font-weight="800">LLM</text>
    <text x="914" y="472" fill="#07100d" font-family="SF Mono, Menlo, monospace" font-size="30" font-weight="800">KEY</text>
  </g>
  <g transform="translate(116 662)">
    <rect x="0" y="0" width="166" height="48" rx="5" fill="#dfff3f"/>
    <rect x="188" y="0" width="166" height="48" rx="5" fill="#b6f4c4"/>
    <rect x="376" y="0" width="166" height="48" rx="5" fill="#fbfff7"/>
    <text x="24" y="31" fill="#07100d" font-family="SF Mono, Menlo, monospace" font-size="18" font-weight="800">OPENAI</text>
    <text x="212" y="31" fill="#07100d" font-family="SF Mono, Menlo, monospace" font-size="18" font-weight="800">CLAUDE</text>
    <text x="400" y="31" fill="#07100d" font-family="SF Mono, Menlo, monospace" font-size="18" font-weight="800">GEMINI</text>
  </g>
  <text x="994" y="704" fill="#fbfff7" font-family="SF Mono, Menlo, monospace" font-size="22">api.f0.nz</text>
</svg>
