<svg xmlns="http://www.w3.org/2000/svg" viewBox="0 0 1280 800" role="img" aria-labelledby="title desc">
  <title id="title">Imago generated project cover</title>
  <desc id="desc">A generated editorial cover for Imago, an AI image generation site that turns prompts into pictures.</desc>
  <defs>
    <pattern id="grid" width="52" height="52" patternUnits="userSpaceOnUse">
      <path d="M52 0H0v52" fill="none" stroke="#dfff3f" stroke-opacity=".1" stroke-width="1"/>
    </pattern>
    <radialGradient id="glow" cx=".68" cy=".3" r=".76">
      <stop offset="0" stop-color="#dfff3f" stop-opacity=".22"/>
      <stop offset=".42" stop-color="#b6f4c4" stop-opacity=".08"/>
      <stop offset="1" stop-color="#07100d" stop-opacity="0"/>
    </radialGradient>
    <linearGradient id="bg" x1="0" x2="1" y1="0" y2="1">
      <stop offset="0" stop-color="#07100d"/>
      <stop offset=".64" stop-color="#123b2e"/>
      <stop offset="1" stop-color="#07100d"/>
    </linearGradient>
    <filter id="shadow" x="-20%" y="-20%" width="140%" height="140%">
      <feDropShadow dx="0" dy="26" stdDeviation="26" flood-color="#000" flood-opacity=".32"/>
    </filter>
  </defs>
  <rect width="1280" height="800" fill="url(#bg)"/>
  <rect width="1280" height="800" fill="url(#grid)"/>
  <rect width="1280" height="800" fill="url(#glow)"/>
  <g transform="translate(96 126)">
    <text x="0" y="72" fill="#fbfff7" font-family="Avenir Next Condensed, DIN Condensed, Arial Narrow, sans-serif" font-size="86" font-weight="800">IMAGO</text>
    <text x="4" y="114" fill="#ff3f2d" font-family="PingFang SC, Noto Sans CJK SC, sans-serif" font-size="20" font-weight="800">AI IMAGE GENERATION · 提示词生图</text>
  </g>
  <g filter="url(#shadow)">
    <rect x="114" y="316" width="1052" height="286" rx="8" fill="#fbfff7"/>
    <rect x="152" y="354" width="392" height="210" rx="6" fill="#07100d"/>
    <text x="178" y="402" fill="#b6f4c4" font-family="SF Mono, Menlo, monospace" font-size="20" font-weight="700">&gt; a fox under aurora</text>
    <rect x="178" y="426" width="180" height="6" rx="3" fill="#2a4d3f"/>
    <rect x="178" y="446" width="120" height="6" rx="3" fill="#2a4d3f"/>
    <rect x="178" y="500" width="194" height="44" rx="5" fill="#dfff3f"/>
    <text x="206" y="529" fill="#07100d" font-family="SF Mono, Menlo, monospace" font-size="20" font-weight="800">GENERATE</text>
    <path d="M560 459h56" stroke="#ff3f2d" stroke-width="10" stroke-linecap="square"/>
    <path d="M610 446l22 13-22 13" fill="none" stroke="#ff3f2d" stroke-width="10" stroke-linecap="square"/>
    <rect x="654" y="354" width="434" height="210" rx="6" fill="#07100d"/>
    <path d="M674 396Q860 356 1066 392" fill="none" stroke="#ff3f2d" stroke-width="6" stroke-opacity=".8"/>
    <circle cx="960" cy="414" r="36" fill="#dfff3f"/>
    <path d="M654 564L744 472L840 516L946 452L1052 506L1088 488L1088 564Z" fill="#b6f4c4"/>
    <text x="672" y="392" fill="#fbfff7" font-family="SF Mono, Menlo, monospace" font-size="18" opacity=".7">✦ generated</text>
  </g>
  <g transform="translate(116 662)">
    <rect x="0" y="0" width="166" height="48" rx="5" fill="#dfff3f"/>
    <rect x="188" y="0" width="166" height="48" rx="5" fill="#b6f4c4"/>
    <rect x="376" y="0" width="166" height="48" rx="5" fill="#fbfff7"/>
    <text x="30" y="31" fill="#07100d" font-family="SF Mono, Menlo, monospace" font-size="18" font-weight="800">PROMPT</text>
    <text x="222" y="31" fill="#07100d" font-family="SF Mono, Menlo, monospace" font-size="18" font-weight="800">IMAGE</text>
    <text x="396" y="31" fill="#07100d" font-family="SF Mono, Menlo, monospace" font-size="18" font-weight="800">GALLERY</text>
  </g>
  <text x="986" y="704" fill="#fbfff7" font-family="SF Mono, Menlo, monospace" font-size="22">imago.f0.nz</text>
</svg>
